<svg data-v-423bf9ae="" xmlns="http://www.w3.org/2000/svg" viewBox="0 0 402 90" class="iconLeft"><!----><!----><!----><g data-v-423bf9ae="" id="d38a2772-d4aa-4299-bf02-57137e7f0cad" fill="#2e3034" transform="matrix(4.258339489801132,0,0,4.258339489801132,105.826829630117,5.205817707580792)"><path d="M5.46 3.75L5.46 3.75Q6.79 3.75 7.77 4.19L7.77 4.19L7.77 4.19Q8.75 4.63 9.28 5.45L9.28 5.45L9.28 5.45Q9.81 6.27 9.81 7.38L9.81 7.38L9.81 7.38Q9.81 8.48 9.28 9.30L9.28 9.30L9.28 9.30Q8.75 10.11 7.77 10.55L7.77 10.55L7.77 10.55Q6.79 10.99 5.46 10.99L5.46 10.99L3.75 10.99L3.75 13.55L0.98 13.55L0.98 3.75L5.46 3.75ZM5.29 8.81L5.29 8.81Q6.15 8.81 6.58 8.43L6.58 8.43L6.58 8.43Q7.01 8.06 7.01 7.38L7.01 7.38L7.01 7.38Q7.01 6.69 6.58 6.31L6.58 6.31L6.58 6.31Q6.15 5.94 5.29 5.94L5.29 5.94L3.75 5.94L3.75 8.81L5.29 8.81ZM13.71 6.87L13.71 6.87Q14.11 6.36 14.76 6.10L14.76 6.10L14.76 6.10Q15.41 5.84 16.25 5.84L16.25 5.84L16.25 8.23L16.25 8.23Q15.89 8.19 15.65 8.19L15.65 8.19L15.65 8.19Q14.80 8.19 14.31 8.65L14.31 8.65L14.31 8.65Q13.83 9.11 13.83 10.07L13.83 10.07L13.83 13.55L11.17 13.55L11.17 5.96L13.71 5.96L13.71 6.87ZM21.18 13.68L21.18 13.68Q19.96 13.68 18.98 13.17L18.98 13.17L18.98 13.17Q18.00 12.67 17.45 11.77L17.45 11.77L17.45 11.77Q16.90 10.88 16.90 9.74L16.90 9.74L16.90 9.74Q16.90 8.62 17.45 7.73L17.45 7.73L17.45 7.73Q18.00 6.83 18.98 6.33L18.98 6.33L18.98 6.33Q19.95 5.84 21.18 5.84L21.18 5.84L21.18 5.84Q22.41 5.84 23.39 6.33L23.39 6.33L23.39 6.33Q24.37 6.83 24.92 7.72L24.92 7.72L24.92 7.72Q25.47 8.61 25.47 9.74L25.47 9.74L25.47 9.74Q25.47 10.88 24.92 11.77L24.92 11.77L24.92 11.77Q24.37 12.67 23.39 13.17L23.39 13.17L23.39 13.17Q22.41 13.68 21.18 13.68L21.18 13.68ZM21.18 11.56L21.18 11.56Q21.88 11.56 22.33 11.08L22.33 11.08L22.33 11.08Q22.78 10.60 22.78 9.74L22.78 9.74L22.78 9.74Q22.78 8.90 22.33 8.43L22.33 8.43L22.33 8.43Q21.88 7.95 21.18 7.95L21.18 7.95L21.18 7.95Q20.48 7.95 20.03 8.43L20.03 8.43L20.03 8.43Q19.59 8.90 19.59 9.74L19.59 9.74L19.59 9.74Q19.59 10.60 20.03 11.08L20.03 11.08L20.03 11.08Q20.48 11.56 21.18 11.56L21.18 11.56ZM26.38 16.39L26.38 16.39Q25.21 16.39 24.53 16.00L24.53 16.00L25.20 14.11L25.20 14.11Q25.56 14.34 26.03 14.34L26.03 14.34L26.03 14.34Q26.39 14.34 26.60 14.08L26.60 14.08L26.60 14.08Q26.81 13.83 26.81 13.34L26.81 13.34L26.81 5.96L29.47 5.96L29.47 13.36L29.47 13.36Q29.47 14.76 28.65 15.57L28.65 15.57L28.65 15.57Q27.83 16.39 26.38 16.39L26.38 16.39ZM28.14 5.12L28.14 5.12Q27.41 5.12 26.96 4.72L26.96 4.72L26.96 4.72Q26.52 4.31 26.52 3.71L26.52 3.71L26.52 3.71Q26.52 3.11 26.96 2.70L26.96 2.70L26.96 2.70Q27.41 2.30 28.14 2.30L28.14 2.30L28.14 2.30Q28.87 2.30 29.32 2.68L29.32 2.68L29.32 2.68Q29.76 3.07 29.76 3.67L29.76 3.67L29.76 3.67Q29.76 4.30 29.32 4.71L29.32 4.71L29.32 4.71Q28.87 5.12 28.14 5.12L28.14 5.12ZM38.93 9.77L38.93 9.77Q38.93 9.80 38.89 10.43L38.89 10.43L33.38 10.43L33.38 10.43Q33.54 11.02 34.03 11.33L34.03 11.33L34.03 11.33Q34.51 11.65 35.24 11.65L35.24 11.65L35.24 11.65Q35.78 11.65 36.18 11.49L36.18 11.49L36.18 11.49Q36.58 11.34 36.99 10.99L36.99 10.99L38.39 12.45L38.39 12.45Q37.28 13.68 35.15 13.68L35.15 13.68L35.15 13.68Q33.82 13.68 32.82 13.17L32.82 13.17L32.82 13.17Q31.81 12.67 31.26 11.77L31.26 11.77L31.26 11.77Q30.70 10.88 30.70 9.74L30.70 9.74L30.70 9.74Q30.70 8.62 31.24 7.73L31.24 7.73L31.24 7.73Q31.78 6.85 32.73 6.34L32.73 6.34L32.73 6.34Q33.68 5.84 34.87 5.84L34.87 5.84L34.87 5.84Q36.01 5.84 36.93 6.31L36.93 6.31L36.93 6.31Q37.86 6.78 38.40 7.66L38.40 7.66L38.40 7.66Q38.93 8.55 38.93 9.77L38.93 9.77ZM34.89 7.73L34.89 7.73Q34.27 7.73 33.86 8.08L33.86 8.08L33.86 8.08Q33.45 8.43 33.33 9.03L33.33 9.03L36.44 9.03L36.44 9.03Q36.33 8.43 35.92 8.08L35.92 8.08L35.92 8.08Q35.50 7.73 34.89 7.73L34.89 7.73ZM44.04 13.68L44.04 13.68Q42.78 13.68 41.79 13.17L41.79 13.17L41.79 13.17Q40.80 12.67 40.24 11.77L40.24 11.77L40.24 11.77Q39.69 10.88 39.69 9.74L39.69 9.74L39.69 9.74Q39.69 8.61 40.24 7.72L40.24 7.72L40.24 7.72Q40.80 6.83 41.79 6.33L41.79 6.33L41.79 6.33Q42.78 5.84 44.04 5.84L44.04 5.84L44.04 5.84Q45.33 5.84 46.27 6.39L46.27 6.39L46.27 6.39Q47.21 6.94 47.60 7.92L47.60 7.92L45.54 8.97L45.54 8.97Q45.02 7.95 44.03 7.95L44.03 7.95L44.03 7.95Q43.32 7.95 42.85 8.43L42.85 8.43L42.85 8.43Q42.38 8.90 42.38 9.74L42.38 9.74L42.38 9.74Q42.38 10.60 42.85 11.08L42.85 11.08L42.85 11.08Q43.32 11.56 44.03 11.56L44.03 11.56L44.03 11.56Q45.02 11.56 45.54 10.54L45.54 10.54L47.60 11.59L47.60 11.59Q47.21 12.57 46.27 13.13L46.27 13.13L46.27 13.13Q45.33 13.68 44.04 13.68L44.04 13.68ZM53.19 11.38L53.84 13.24L53.84 13.24Q53.51 13.45 53.02 13.57L53.02 13.57L53.02 13.57Q52.54 13.68 52.00 13.68L52.00 13.68L52.00 13.68Q50.51 13.68 49.71 12.95L49.71 12.95L49.71 12.95Q48.92 12.22 48.92 10.78L48.92 10.78L48.92 8.23L47.81 8.23L47.81 6.24L48.92 6.24L48.92 4.27L51.58 4.27L51.58 6.24L53.31 6.24L53.31 8.23L51.58 8.23L51.58 10.75L51.58 10.75Q51.58 11.16 51.79 11.39L51.79 11.39L51.79 11.39Q52.01 11.62 52.37 11.62L52.37 11.62L52.37 11.62Q52.84 11.62 53.19 11.38L53.19 11.38ZM54.68 10.58L54.68 8.54L58.77 8.54L58.77 10.58L54.68 10.58ZM66.49 13.55L64.71 10.95L63.20 10.95L63.20 13.55L60.42 13.55L60.42 3.75L64.90 3.75L64.90 3.75Q66.23 3.75 67.21 4.19L67.21 4.19L67.21 4.19Q68.19 4.63 68.73 5.45L68.73 5.45L68.73 5.45Q69.26 6.27 69.26 7.38L69.26 7.38L69.26 7.38Q69.26 8.44 68.76 9.23L68.76 9.23L68.76 9.23Q68.26 10.02 67.34 10.47L67.34 10.47L69.45 13.55L66.49 13.55ZM66.46 7.38L66.46 7.38Q66.46 6.69 66.02 6.31L66.02 6.31L66.02 6.31Q65.59 5.94 64.74 5.94L64.74 5.94L63.20 5.94L63.20 8.81L64.74 8.81L64.74 8.81Q65.59 8.81 66.02 8.43L66.02 8.43L66.02 8.43Q66.46 8.06 66.46 7.38L66.46 7.38Z"></path></g><!----><g data-v-423bf9ae="" id="728fa98e-337e-41ce-a3c4-39777fa959a9" transform="matrix(3,0,0,3,-3,-3)" stroke="none" fill="#488eff"><path d="M16 1C7.7 1 1 7.7 1 16s6.7 15 15 15 15-6.7 15-15S24.3 1 16 1zm0 28C8.8 29 3 23.2 3 16S8.8 3 16 3s13 5.8 13 13-5.8 13-13 13z"></path><path d="M23.1 8.9C21.2 7.1 18.7 6 16 6s-5.2 1.1-7 2.9c-1.9 1.9-3 4.4-3 7.1s1.1 5.2 2.9 7c1.8 1.8 4.3 2.9 7 2.9s5.2-1.1 7-2.9c1.8-1.8 2.9-4.3 2.9-7s-.9-5.2-2.7-7.1zm-.8 12l-2.6-2.6c.2-.4.4-.8.5-1.3h3.7c-.2 1.5-.7 2.8-1.6 3.9zM8.1 17h3.7c.1.5.3.9.5 1.3l-2.6 2.6c-.9-1.1-1.4-2.4-1.6-3.9zm1.6-5.9l2.6 2.6c-.2.4-.4.8-.5 1.3H8.1c.2-1.5.7-2.8 1.6-3.9zm6.3 7.2c-1.3 0-2.3-1-2.3-2.3s1-2.3 2.3-2.3 2.3 1 2.3 2.3-1 2.3-2.3 2.3zm2.3-6c-.4-.2-.8-.4-1.3-.5V8.1c1.5.2 2.8.8 3.9 1.6l-2.6 2.6zm-3.3-.5c-.5.1-.9.3-1.3.5l-2.6-2.6c1.1-.9 2.4-1.4 3.9-1.6v3.7zm-1.3 7.9c.4.2.8.4 1.3.5v3.7c-1.5-.2-2.8-.8-3.9-1.6l2.6-2.6zm3.3.5c.5-.1.9-.3 1.3-.5l2.6 2.6c-1.1.9-2.4 1.4-3.9 1.6v-3.7zm3.2-5.2c-.1-.5-.3-.9-.5-1.3l2.6-2.6c.9 1.1 1.4 2.4 1.6 3.9h-3.7z"></path></g><!----></svg>